<svg xmlns="http://www.w3.org/2000/svg" viewBox="0 0 64 64" id="web-browser">
  <defs>
    <linearGradient id="a" x1="4" x2="60" y1="32" y2="32" gradientUnits="userSpaceOnUse">
      <stop offset="0" stop-color="#ff81ff"></stop>
      <stop offset="1" stop-color="#a93aff"></stop>
    </linearGradient>
  </defs>
  <path fill="url(#a)" d="M56,7.7749H8a4.00458,4.00458,0,0,0-4,4V52.2251a4.00458,4.00458,0,0,0,4,4H56a4.00428,4.00428,0,0,0,4-4V11.7749A4.00428,4.00428,0,0,0,56,7.7749Zm-48,2H56a2.0023,2.0023,0,0,1,2,2v7.25781H6V11.7749A2.002,2.002,0,0,1,8,9.7749ZM56,54.2251H8a2.002,2.002,0,0,1-2-2V21.03271H58V52.2251A2.00229,2.00229,0,0,1,56,54.2251Zm-16.01953-27.105-1.54492-1.08838a3.74911,3.74911,0,0,0-5.20117.90189L24.22021,39.731a1.53228,1.53228,0,0,0-.17137.42627l-1.2295,8.12988a1.00029,1.00029,0,0,0,1.4624,1.03027l7.2417-3.89453a1.53243,1.53243,0,0,0,.34374-.30518l9.01466-12.79736A3.74992,3.74992,0,0,0,39.98047,27.12012Zm-7.78229,4.757,4.3775,3.084-5.76757,8.18732-4.377-3.0835ZM25.0957,46.6084l.68848-4.55225,3.3667,2.37158ZM39.24707,31.169l-1.51953,2.157-4.37763-3.08411L34.86914,28.085a1.724,1.724,0,0,1,1.12109-.709c.94168-.273,2.11727.94747,2.838,1.37891A1.74133,1.74133,0,0,1,39.24707,31.169Zm1.42908-18.56372a1.34605,1.34605,0,0,1,.00006,2.69183A1.34605,1.34605,0,0,1,40.67615,12.60523Zm5.33551,0a1.34605,1.34605,0,0,1,.00006,2.69183A1.34605,1.34605,0,0,1,46.01166,12.60523Zm5.19135,0a1.34605,1.34605,0,0,1,.00005,2.69183A1.34605,1.34605,0,0,1,51.203,12.60523Z"></path>
</svg>
